<svg xmlns="http://www.w3.org/2000/svg" width="32" height="32" viewBox="0 0 32 32"><g transform="translate(-386 -78)"><rect width="32" height="32" rx="4" transform="translate(386 78)" fill="#e7165d"/><g transform="translate(-669 55.928)"><g transform="translate(-2461.282 -3133.782)"><g transform="translate(3524.282 3163.572)"><g transform="translate(0 0)"><g transform="translate(0 0)"><g transform="translate(2.797)"><path d="M22.434,26.9V25.434A2.934,2.934,0,0,0,19.5,22.5" transform="translate(-13.632 -13.698)" fill="none" stroke="#1e272e" stroke-linecap="round" stroke-linejoin="round" stroke-width="1"/><path d="M13.368,7.434A2.934,2.934,0,1,1,10.434,4.5a2.934,2.934,0,0,1,2.934,2.934Z" transform="translate(-7.5 -4.5)" fill="none" stroke="#1e272e" stroke-linecap="round" stroke-linejoin="round" stroke-width="1"/><path d="M32.2,27V25.534A2.934,2.934,0,0,0,30,22.7" transform="translate(-18.998 -13.798)" fill="none" stroke="#1e272e" stroke-linecap="round" stroke-linejoin="round" stroke-width="1"/><path d="M24,4.7a2.934,2.934,0,0,1,0,5.684" transform="translate(-15.932 -4.6)" fill="none" stroke="#1e272e" stroke-linecap="round" stroke-linejoin="round" stroke-width="1"/></g><g transform="translate(0 8.139)"><path d="M-4641.138-1636.674v3.026" transform="translate(4645.042 1639.119)" fill="none" stroke="#1e272e" stroke-linecap="round" stroke-width="1"/><path d="M0,0V3.026" transform="translate(2.391 3.958) rotate(-90)" fill="none" stroke="#1e272e" stroke-linecap="round" stroke-width="1"/><g transform="translate(0 0)" fill="none" stroke="#1e272e" stroke-width="1"><circle cx="3.931" cy="3.931" r="3.931" stroke="none"/><circle cx="3.931" cy="3.931" r="3.431" fill="none"/></g></g></g></g></g></g></g></g></svg>